<svg width="40" height="60" viewBox="0 0 40 60" fill="none" xmlns="http://www.w3.org/2000/svg">
<path d="M0.4628 56.2251C6.74916 58.7351 13.1156 59.9872 19.5192 59.9872C25.9228 59.9872 32.3637 58.7351 38.787 56.2337C39.0643 56.1251 39.2559 55.8535 39.2559 55.5533C39.2559 55.0559 39.1673 43.2006 31.7831 36.5109C28.5841 33.6207 24.5018 32.1484 19.6279 32.1484C14.754 32.1484 10.6717 33.6207 7.47281 36.5109C0.0797693 43.206 0 55.0557 0 55.5533C0 55.8535 0.18296 56.1251 0.460261 56.2337L0.4628 56.2251ZM9.01874 37.1088C11.8518 34.7817 15.4223 33.6039 19.6304 33.6039C23.8385 33.6039 27.4091 34.7817 30.2509 37.1088L19.6304 48.7897L9.01874 37.1088Z" fill="#012D4C"/>
<path d="M0.465322 8.91451L7.08905 11.5503V16.3215C7.08905 16.7961 7.21484 17.3536 7.60077 17.9167C8.01815 24.1945 13.2439 29.1856 19.6329 29.1856C26.022 29.1856 31.2626 24.1799 31.6651 17.8853C31.9882 17.4164 32.1768 16.8961 32.1768 16.3272V11.556L38.8006 8.92022C39.0779 8.81158 39.2608 8.54 39.2608 8.23983C39.2608 7.93966 39.0779 7.66808 38.8006 7.55945L19.9045 0.0493135C19.7301 -0.0164378 19.5386 -0.0164378 19.3642 0.0493135L0.468074 7.55945C0.190772 7.66808 0.0078125 7.93966 0.0078125 8.23983C0.0078125 8.54 0.190772 8.81158 0.468074 8.92022L0.465322 8.91451ZM19.6329 27.714C14.5472 27.714 10.2932 24.1205 9.27008 19.341C9.81039 19.6498 10.4707 19.9414 11.2912 20.1987C13.501 20.9076 16.4655 21.2964 19.6327 21.2964C23.6206 21.2964 27.6317 20.6675 30.0043 19.3125C28.9866 24.1066 24.7271 27.7199 19.6327 27.7199L19.6329 27.714ZM30.7137 16.3193C30.7137 18.2889 25.8482 19.8327 19.6329 19.8327C13.4209 19.8327 8.55215 18.2889 8.55215 16.3193V12.1255L19.3614 16.4222C19.45 16.4593 19.5358 16.4736 19.633 16.4736C19.7273 16.4736 19.816 16.4593 19.9046 16.4222L30.7138 12.1255L30.7137 16.3193Z" fill="#012D4C"/>
</svg>
