<svg width="44" height="40" viewBox="0 0 44 40" fill="none" xmlns="http://www.w3.org/2000/svg">
<path d="M38.8551 28.4445C35.7641 29.7083 33.7309 31.8133 33.7309 34.1977H32.2643C32.2643 32.0093 33.5952 30.0185 35.7549 28.5174C34.7558 26.7242 32.8436 25.4967 30.6308 25.4967C30.5684 25.4967 30.5061 25.4985 30.4438 25.5003C29.2613 23.9066 27.0649 22.8042 24.5128 22.4579C24.1461 24.7479 24.1975 26.3434 24.2011 26.3888L22.7363 26.4522C22.7363 26.4414 22.7326 26.3471 22.7326 26.202C22.7473 25.0888 22.9508 20.3095 25.1013 15.5189C26.6541 12.1864 29.2116 8.81742 33.4559 6.58574L34.1452 7.8658C30.1981 9.94184 27.8168 13.095 26.3792 16.2151C27.7524 16.6684 29.0834 16.9005 30.3649 16.9005C31.9104 16.9005 33.3862 16.5705 34.7832 15.9087C41.4749 12.7394 43.8803 3.14432 43.9793 2.73818C44.038 2.49885 43.9701 2.24863 43.7996 2.07095C43.6291 1.89327 43.3835 1.81168 43.1359 1.8552C40.4739 2.33203 37.8414 1.67389 36.1035 1.0393C31.9748 -0.467411 27.373 1.3439 25.6299 5.16233C23.8552 9.05147 24.0092 13.7674 24.0605 14.6957C23.5234 15.7237 23.0944 16.7572 22.7424 17.7635C22.1814 16.721 21.3142 15.3393 20.084 13.9704C20.1354 12.6704 20.1684 8.29888 18.5055 4.65291C16.7639 0.832653 12.1602 -0.976872 8.03004 0.529882C6.29206 1.16448 3.66488 1.81899 0.997573 1.34578C0.755577 1.30227 0.5044 1.38386 0.333892 1.56154C0.163393 1.73923 0.0955606 1.99125 0.154227 2.22877C0.253228 2.63491 2.65853 12.23 9.35031 15.3993C10.7473 16.0611 12.2213 16.3911 13.7686 16.3911C15.03 16.3911 16.339 16.1662 17.6883 15.7256C16.0933 14.0412 13.9135 12.4385 11.0496 11.7422L11.3998 10.3334C14.8336 11.1675 17.3528 13.1165 19.1217 15.0929C20.9257 17.2016 21.8735 19.2685 22.1155 19.8361C21.8827 20.7463 21.714 21.6039 21.5893 22.389C19.2555 22.6084 17.2553 23.4442 15.9353 24.6536C17.171 25.9645 17.9538 27.5872 17.9538 29.4205H16.4871C16.4871 26.8985 14.498 24.7953 11.9496 23.6241C9.11714 23.6876 6.787 25.711 6.31392 28.4105C2.90028 28.1385 0 30.8491 0 34.1944C0 37.3927 2.63267 39.9964 5.86664 39.9964L38.1313 40C41.3653 40 43.9979 37.3963 43.9979 34.198C43.9979 31.2426 41.7484 28.8003 38.8555 28.4448L38.8551 28.4445Z" fill="#012D4C"/>
</svg>
