<svg width="54" height="50" viewBox="0 0 54 50" fill="none" xmlns="http://www.w3.org/2000/svg">
<path d="M15.831 21.667C19.5144 21.667 22.4979 18.7044 22.4979 15.0502V10H9.16406V15.0502C9.16406 18.7066 12.1475 21.667 15.831 21.667Z" fill="#012D4C"/>
<path d="M22.296 24.1818L20.8376 23.7734L17.1562 28.0694L18.898 28.9403L22.296 24.1818Z" fill="#012D4C"/>
<path d="M9.36719 24.1818L12.7652 28.9403L14.507 28.0694L10.8256 23.7734L9.36719 24.1818Z" fill="#012D4C"/>
<path d="M25.8311 3.33346V0.833364C25.8311 0.372931 25.4582 0 24.9977 0H14.1642C11.4058 0 9.16406 2.24174 9.16406 5.00019V8.33364H20.8312C23.5896 8.33364 25.8311 6.09191 25.8311 3.33346Z" fill="#012D4C"/>
<path d="M51.665 31.6694H44.9981V30.836C44.9981 29.4568 43.8772 28.3359 42.498 28.3359H37.4978C36.1186 28.3359 34.9977 29.4568 34.9977 30.836V31.6694H28.3308C27.4099 31.6694 26.6641 32.4152 26.6641 33.3361V36.3487C26.6641 36.6904 26.8787 37.0029 27.1974 37.1279L37.4975 40.7447V38.3404C37.4975 37.88 37.8705 37.5071 38.3309 37.5071H41.6644C42.1248 37.5071 42.4977 37.88 42.4977 38.3404V40.7447L52.7978 37.1279C53.1187 37.005 53.3312 36.6945 53.3312 36.3487V33.3361C53.3312 32.4152 52.5859 31.6694 51.665 31.6694ZM43.3314 31.6694H36.6644V30.836C36.6644 30.3777 37.0394 30.0027 37.4978 30.0027H42.498C42.9563 30.0027 43.3314 30.3777 43.3314 30.836V31.6694Z" fill="#012D4C"/>
<path d="M42.4977 45.0034C42.4977 45.4638 42.1248 45.8367 41.6644 45.8367H38.3309C37.8705 45.8367 37.4975 45.4638 37.4975 45.0034V42.5074L26.6641 38.7031V48.335C26.6641 49.2558 27.4099 50.0017 28.3308 50.0017H51.665C52.5859 50.0017 53.3317 49.2558 53.3317 48.335V38.7031L42.4983 42.5074L42.4977 45.0034Z" fill="#012D4C"/>
<path d="M39.1719 39.168H40.8386V44.1682H39.1719V39.168Z" fill="#012D4C"/>
<path d="M29.1693 24.1658C29.3818 24.1658 29.5943 24.0846 29.7589 23.9221L36.6695 17.0114L40.2467 20.5886C40.5718 20.9136 41.101 20.9136 41.4259 20.5886L48.3366 13.678V14.9989C48.3366 15.4593 48.7095 15.8322 49.17 15.8322C49.6304 15.8322 50.0033 15.4593 50.0033 14.9989V11.6654C50.0033 11.205 49.6304 10.832 49.17 10.832H45.8365C45.3761 10.832 45.0031 11.205 45.0031 11.6654C45.0031 12.1258 45.3761 12.4988 45.8365 12.4988H47.1574L40.8361 18.8201L37.2589 15.2429C36.9339 14.9178 36.4047 14.9178 36.0797 15.2429L28.5797 22.7429C28.2547 23.0679 28.2547 23.5971 28.5797 23.9221C28.7422 24.0846 28.9547 24.1658 29.1693 24.1658Z" fill="#012D4C"/>
<path d="M19.953 22.2461C18.7363 22.9378 17.3299 23.3337 15.8319 23.3337C14.334 23.3337 12.9277 22.9378 11.7109 22.2461L15.8319 27.0546L19.953 22.2461Z" fill="#012D4C"/>
<path d="M31.6679 30.002V29.9645C31.6679 28.1228 30.4845 26.5227 28.7261 25.9832C28.7199 25.9811 28.7136 25.979 28.7053 25.9769L24.0072 24.6602L19.8445 30.4876C19.682 30.7126 19.4278 30.8376 19.1653 30.8376C19.0403 30.8376 18.9112 30.8084 18.7945 30.7501L15.834 29.2709L12.8734 30.7501C12.5067 30.9334 12.0609 30.823 11.8234 30.4897L7.66069 24.6622L2.9626 25.979C2.95426 25.9811 2.9501 25.9832 2.94176 25.9852C1.18335 26.5269 0 28.127 0 29.9666V40.8379C0 41.2984 0.372931 41.6713 0.833364 41.6713H25.0007V33.3377C25.0007 31.5001 26.4966 30.0042 28.3341 30.0042H31.6676L31.6679 30.002Z" fill="#012D4C"/>
</svg>
