<svg width="44" height="43" viewBox="0 0 44 43" fill="none" xmlns="http://www.w3.org/2000/svg">
<path d="M37.0875 9.06071H34.7839V5.14464C34.7839 2.30357 32.4804 0 29.6393 0H13.4375C10.5964 0 8.29286 2.30357 8.29286 5.14464V9.06071H5.98929C2.6875 9.06071 0 11.7482 0 15.05V24.0339H16.5089V23.0357C16.5089 21.7304 17.5839 20.7321 18.8125 20.7321H24.1107C25.4161 20.7321 26.4143 21.8071 26.4143 23.0357V24.0339H43.0768V15.05C43.0768 11.7482 40.3893 9.06071 37.0875 9.06071ZM31.4821 9.06071H11.6714V5.14464C11.6714 4.14643 12.5161 3.30179 13.4375 3.30179H29.7161C30.7143 3.30179 31.4821 4.14643 31.4821 5.14464V9.06071Z" fill="#012D4C"/>
<path d="M26.5692 28.256C26.5692 29.5614 25.4942 30.5596 24.2656 30.5596H18.9674C17.6621 30.5596 16.6638 29.4846 16.6638 28.256V27.2578H0.078125V37.0096C0.078125 40.3114 2.76563 42.9989 6.06741 42.9989H37.1656C40.4674 42.9989 43.1549 40.3114 43.1549 37.0096V27.3346H26.5692V28.256Z" fill="#012D4C"/>
<path d="M23.7317 28.9499C24.346 28.9499 24.8835 28.4124 24.8835 27.7981V23.4213C24.8835 22.807 24.346 22.2695 23.7317 22.2695H19.3549C18.7406 22.2695 18.2031 22.807 18.2031 23.4213V27.7981C18.2031 28.4124 18.7406 28.9499 19.3549 28.9499H23.7317Z" fill="#012D4C"/>
</svg>
