<svg width="44" height="50" viewBox="0 0 44 50" fill="none" xmlns="http://www.w3.org/2000/svg">
<path d="M17.8577 38.4559L20.4344 37.6064L13.3926 50L9.88007 42.1809C9.62336 41.6023 9.05231 41.263 8.42134 41.3192L0 42.1394L6.00046 31.5743C6.32916 31.8331 6.70821 32.0406 7.13047 32.1797L10.6357 33.3369C11.0772 33.4809 11.3963 33.7152 11.6674 34.0985L13.8315 37.128C14.5321 38.1044 15.5925 38.6415 16.713 38.6415C17.0896 38.6415 17.4759 38.5805 17.855 38.4535L17.8577 38.4559ZM37.9992 31.5742C37.6705 31.833 37.2939 32.0405 36.874 32.1796L33.3664 33.3367C32.9249 33.4808 32.6082 33.7151 32.3371 34.0984L30.1682 37.1279C29.2349 38.4338 27.6538 38.9563 26.1423 38.4558L23.5679 37.6063L30.6097 49.9999L34.1198 42.1783C34.3837 41.5998 34.9524 41.2653 35.5737 41.3215L44 42.1417L37.9971 31.5766L37.9992 31.5742ZM26.6174 36.9691L23.1122 35.812C22.366 35.5654 21.6391 35.5654 20.8905 35.812L17.3828 36.9691C16.5191 37.2572 15.6122 36.9569 15.0748 36.2074L12.9107 33.178C12.4476 32.5286 11.8574 32.0941 11.1089 31.8476L7.60599 30.6904C6.73984 30.4024 6.17846 29.6213 6.17846 28.6961V24.9489C6.17846 24.1458 5.95293 23.4403 5.49227 22.7983L3.32818 19.7688C2.79316 19.0194 2.79316 18.0527 3.32818 17.3057L5.49227 14.2787C5.95532 13.6343 6.18085 12.9287 6.18085 12.1256V8.37849C6.18085 7.45572 6.74227 6.67212 7.60838 6.38409L11.1089 5.22698C11.8598 4.98042 12.45 4.54593 12.9131 3.89656L15.0772 0.869534C15.4802 0.308073 16.0872 0.000507988 16.7326 0.000507988C16.9485 0.000507988 17.1693 0.0346836 17.3876 0.107915L20.8953 1.26503C21.6439 1.51159 22.3684 1.51159 23.117 1.26503L26.6198 0.107915C27.486 -0.18014 28.3928 0.120121 28.9279 0.869578L31.0944 3.89661C31.5574 4.54597 32.1452 4.98048 32.8938 5.22702L36.399 6.38414C37.2652 6.67219 37.8242 7.45333 37.8242 8.37854V12.1257C37.8242 12.9239 38.0497 13.6269 38.5104 14.2763L40.6768 17.3033C41.2095 18.0527 41.2095 19.0194 40.6768 19.7689L38.508 22.7983C38.0449 23.4453 37.8218 24.1507 37.8218 24.949V28.6961C37.8218 29.6213 37.2628 30.4025 36.3966 30.6905L32.8914 31.8476C32.1428 32.0942 31.5526 32.5287 31.092 33.1756L28.9255 36.2051C28.3905 36.9545 27.4835 37.2523 26.6174 36.9667V36.9691ZM35.4871 18.5412C35.4871 10.9858 29.4386 4.83652 22.0035 4.83652C14.5686 4.83652 8.51992 10.9833 8.51992 18.5412C8.51992 26.0966 14.5684 32.2459 22.0035 32.2459C29.4385 32.2459 35.4871 26.0992 35.4871 18.5412ZM33.9516 18.5412C33.9516 25.2348 28.5917 30.6836 22.0035 30.6836C15.415 30.6836 10.0554 25.2374 10.0554 18.5412C10.0554 11.845 15.4153 6.39884 22.0035 6.39884C28.5921 6.39884 33.9516 11.845 33.9516 18.5412ZM27.1616 14.6915C26.5954 14.113 25.6789 14.1105 25.1103 14.6866L20.5469 19.2833L18.8843 17.6429C18.3109 17.0741 17.3896 17.0863 16.833 17.6697C16.2764 18.2531 16.286 19.1905 16.8642 19.7594L19.5465 22.4104C20.1151 22.9719 21.022 22.967 21.5811 22.3958L27.1545 16.7763C27.7231 16.2002 27.7255 15.2677 27.1593 14.6892L27.1616 14.6915Z" fill="#012D4C"/>
</svg>
