<svg width="54" height="46" viewBox="0 0 54 46" fill="none" xmlns="http://www.w3.org/2000/svg">
<path fill-rule="evenodd" clip-rule="evenodd" d="M30.4856 33.4319L43.9177 30.9156C46.0681 30.4617 47.4274 30.7477 47.6809 31.8931L32.253 34.8069C32.2088 34.8152 32.168 34.8079 32.1304 34.7844L30.4271 33.7135C30.3706 33.6779 30.3437 33.617 30.357 33.5539C30.3699 33.4906 30.4194 33.4445 30.4856 33.4319ZM30.9157 19.0626L39.7566 9.34863C40.1305 8.93839 40.7707 8.90879 41.1809 9.28191L42.9587 10.8996C43.3689 11.2729 43.399 11.9136 43.0259 12.3236L31.8886 24.5617L31.8711 24.5806L31.8527 24.599L31.8342 24.617L31.8153 24.6339V24.6344L31.7966 24.6509L31.7772 24.6667L31.7573 24.6822L31.7568 24.6827L31.7374 24.6973L31.7369 24.6978L31.7168 24.7123H31.7161L31.6964 24.7259H31.6959L31.6751 24.7395L31.6537 24.7519V24.7526L31.6326 24.764L31.6319 24.7645L31.6103 24.7761L31.5885 24.7873L31.5662 24.7979H31.5657L31.5438 24.8077L31.5213 24.8171L31.4985 24.8258L31.4757 24.8341H31.4752L31.4526 24.8419L31.4293 24.8491H31.4288L31.4056 24.8554L31.3823 24.8613H31.3818L31.3582 24.8666V24.8671L31.3345 24.8719L31.3107 24.8763L31.2869 24.8797L31.2864 24.8802L31.2629 24.8831L31.2386 24.8855L31.2144 24.8875L31.1901 24.8889V24.8894L31.1661 24.8899H31.1418H31.1176L31.0933 24.8889L31.045 24.8855L31.0208 24.8831V24.8826L30.9968 24.8797L30.973 24.8763L30.9252 24.8666L30.9014 24.8613L30.8777 24.8554V24.855L30.8539 24.8486V24.8482L30.8308 24.8414V24.8409L30.8075 24.8336L30.7847 24.8249L30.7843 24.8246L30.761 24.8164L30.7614 24.8159L30.7389 24.8067V24.8062L30.7161 24.7965H30.7166L30.6938 24.7853L30.6722 24.7742L30.6499 24.762L30.628 24.7499V24.7494L30.6067 24.7363L30.5856 24.723L30.5647 24.7089L30.5438 24.6939L30.5235 24.6783L30.5036 24.6623L30.4837 24.6456L30.4645 24.6286L23.9038 18.6587C23.4938 18.2851 23.464 17.6446 23.8369 17.2341L25.455 15.4559C25.8286 15.0464 26.4686 15.0158 26.8796 15.3894L30.9157 19.0626ZM33.087 0C42.1215 0 49.4454 7.32364 49.4454 16.3588C49.4454 21.3916 47.1719 25.8926 43.597 28.8931L43.5191 28.9093L30.1091 31.4214C30.0045 31.4411 29.9026 31.4678 29.8039 31.5013C29.4859 31.1825 29.1137 30.9057 28.6962 30.6834L24.3502 28.3685C23.5664 27.9151 22.8357 27.289 22.1287 26.7254C21.1712 25.9619 20.2037 25.2487 19.0775 24.7509L19.031 24.7305C17.569 22.2814 16.7282 19.4185 16.7282 16.3588C16.7282 7.32364 24.0523 0 33.087 0ZM8.63721 27.1737C11.8274 25.2096 15.3427 25.3365 18.2508 26.6216C20.1506 27.4612 21.5894 29.1446 23.3592 30.1582L27.7348 32.4886C30.0259 33.6907 28.8648 36.7557 26.7491 36.305L22.1991 35.7443C21.6406 35.6752 21.1736 35.5081 20.7168 35.1956L15.6746 31.7402C15.195 31.3746 14.6144 32.0995 15.1743 32.4537L20.2808 36.1058C20.735 36.4304 21.5147 36.7077 22.0788 36.7815L26.6181 37.3754C28.1802 37.5823 29.5101 36.9132 29.9929 35.2701C30.0072 35.2218 30.0407 35.1864 30.0894 35.1677C30.1382 35.149 30.1887 35.1526 30.2338 35.1781L31.5657 35.9273C31.6021 35.9476 31.6409 35.954 31.6824 35.9457L49.5147 32.4345C53.3884 31.7574 54.8163 36.2376 50.7615 37.1682L31.671 42.9329C28.7207 43.8232 25.8808 44.0995 22.9761 43.0838L13.569 39.7946C12.7338 39.5022 11.8495 39.5102 11.1137 39.987L2.21993 45.7497C1.74613 46.0566 0.828125 46.2342 0.828125 45.3448L0.828368 33.9821C0.828368 32.5854 1.19542 31.9292 1.85311 31.4115C3.8257 29.8571 7.82668 27.673 8.63721 27.1737Z" fill="#012D4C"/>
</svg>
