    <svg xmlns="http://www.w3.org/2000/svg" version="1.2" viewBox="0 0 1080 773" width="1080" height="773">
  <style>
		.s0 { fill: #012d4c }
		.s1 { fill: #be5234 }
	</style>
  <path id="Path 2" className="s0" d="m893.4 133.2c-66.9-23.1-213.6-31.7-215.1-31.7h-2.1v-16.1h220.2v49zm-47.6 218.9c-60.3-15.1-166.9-26-168-26.1l-2-0.3v-19.1h172.7v46.2zm-169.4 224.8v-16.1h2.1c164.8-11.8 213.9-31.6 214.4-31.7l3-1.3v49.1zm-234.8 0l-87.7-195.1c0-0.4-3.1-9.4-8.8-9.4h-0.5c0.2 0-2.7 1-6.1 11l-67.9 193.7h-30.1l-218.8-492.6h47.9l187.9 423.1c3 7.8 7.3 14.5 9.3 14.5 2 0 5.9-7.5 7.5-13.9l40.7-140.9 6.3-20.5c0-0.2 6.7-23.7-1.3-42.6-8.3-19.7-96.4-214.5-97.3-216.5l-1.4-3.1h48.7l69.8 156.8c1 2.8 3.8 8.3 6.7 8.3h0.5c0 0 3.4-1.6 5.6-9.6 2.7-9.7 43.8-152.4 44-153.8l0.5-1.6h47.3l-65.4 187c-5.5 11.7-7.7 24.7-6.4 37.6 1.2 7.1 3.3 14 6.3 20.6 4.6 9.5 75.3 168.4 78.3 175.2 2.7 8.5 7.4 17.6 10.1 17.6 2.8 0 6.9-9.7 8.8-18.3l119.9-419.1h49.3l-174.1 491.6z"></path>
  <path id="Path 3" fillRule="evenodd" className="s0" d="m850.7 355.6l-5.4-1.4c-60.1-15.1-166.6-26-167.7-26l-4-0.5v-23.2h177.1zm-172.7-46.8v14.9c0 0 107.2 10.8 168.3 26.2v-41.1zm220.4-171.5l-5.9-2c-66.5-22.9-213-31.7-214.5-31.7l-4.1-0.3v-20.4h224.5c0 0 0 54.4 0 54.4zm-220.1-50v11.9c0 0 147.8 8.5 215.7 31.9v-43.8zm219.8 491.8h-223.9v-20.2l4.1-0.3c164.1-11.8 213.2-31.4 213.8-31.6l6-2.5zm-219.5-16.2v11.8h215.1v-43.7c0 0-47.8 19.9-215.1 31.9zm-231.2-480.2h-0.2l0.2-0.4zm-0.1 0l-1.9 5.3-64.3 184v0.6c-5.3 11.2-7.4 23.7-6.2 36 1.3 6.9 3.3 13.7 6.2 20.1 4.6 9.5 75.3 168.4 78.3 175.2v0.2c1.5 5.8 4.2 11.2 7.9 15.8 3.4-4.9 5.7-10.6 6.8-16.5l119.3-417.4 0.9-3.2h54.2l-2.1 5.9-172.9 487.2-1 2.9h-32.6l-1.2-2.6-87.1-193.7v-0.5c-0.5-1.5-2.9-7.1-6.1-7.5-2.3 2.7-4 6-4.9 9.5l-67.3 192-1 3h-33.3l-1.2-2.6-217-488.1-2.7-6.2h52.8l1.1 2.6 187.5 421.9c1.6 4.7 4 9 7.2 12.8 2.6-3.7 4.4-7.8 5.4-12.2l40.7-140.9 6.2-20.3c0.1-0.3 6.5-23.1-1.2-41.2-8.3-19.7-96.4-214.5-97.3-216.5l-2.8-6.2h53.8l1.2 2.6 69 156.1v0.2c0.8 2.6 2.3 4.9 4.4 6.6 2.3-2.1 3.8-4.9 4.4-8 2.5-9.7 43.6-152.3 44-153.8l0.9-3.1zm-6 3.8l-0.1 0.6h0.1zm-0.2 0.5h-42.5c0 0-41.3 143.9-44 153.8-2.7 9.8-7.3 11.1-7.3 11.1h-0.9c-5.6 0-8.8-9.6-8.8-9.6l-69.2-155.4h-44c0 0 88.8 196.7 97.3 216.5 8.4 19.7 1.4 44 1.4 44l-6.3 20.4-40.6 140.9c0 0-3.9 14.7-9.3 15.5h-0.4c-5.3 0-11.3-15.8-11.3-15.8l-187.4-421.8h-43l217 488h27.6l67.3-192c4.1-11.7 7.7-12.5 8.5-12.5h0.3c7.3 0 10.6 10.7 10.6 10.7l87.1 193.7h26.4l172.8-487.4h-44.9l-119.3 417.6c0 0-4.6 19.7-10.9 19.9-6.2 0-12.1-19.1-12.1-19.1 0 0-73.6-165.5-78.3-175-3.1-6.8-5.2-14-6.5-21.3-1.4-13.2 0.8-26.7 6.5-38.7zm-279.4 648v-44.9h32.5v5.3h-26.6v13.7h24.9v5.3h-24.9v15.3h27.6v5.3z"></path>
  <path id="Path 4" fillRule="evenodd" className="s0" d="m253.6 735.3v-45h15.5q5.2 0 8 0.7 3.8 0.9 6.6 3.2 3.5 3 5.3 7.7 1.8 4.6 1.8 10.7 0 5.1-1.2 9-1.2 4-3.1 6.6-1.9 2.6-4.1 4-2.2 1.5-5.4 2.3-3.1 0.8-7.2 0.8zm6-5.3h9.6q4.4 0 6.9-0.9 2.6-0.8 4.1-2.3 2.1-2.1 3.3-5.7 1.1-3.6 1.1-8.6 0-7.1-2.3-10.9-2.3-3.8-5.6-5.1-2.4-0.9-7.7-0.9h-9.4zm119.1-39.6h5.9v26q0 6.7-1.5 10.7-1.6 4-5.6 6.5-4 2.5-10.5 2.5-6.3 0-10.3-2.2-4-2.2-5.7-6.3-1.7-4.1-1.7-11.2v-26h5.9v25.9q0 5.9 1.1 8.7 1.1 2.7 3.7 4.2 2.7 1.5 6.5 1.5 6.6 0 9.4-2.9 2.8-3 2.8-11.5zm98.1 29.2l5.9 1.5q-1.8 7.3-6.7 11.2-4.9 3.8-11.9 3.8-7.2 0-11.8-2.9-4.5-3-6.9-8.6-2.4-5.6-2.4-12 0-7.1 2.7-12.3 2.7-5.2 7.6-7.9 5-2.7 10.9-2.7 6.8 0 11.4 3.4 4.6 3.4 6.4 9.6l-5.9 1.4q-1.5-4.9-4.5-7.1-3-2.3-7.5-2.3-5.2 0-8.7 2.5-3.4 2.5-4.9 6.7-1.4 4.2-1.4 8.6 0 5.8 1.7 10 1.7 4.3 5.2 6.4 3.5 2.1 7.6 2.1 5 0 8.5-2.8 3.5-2.9 4.7-8.6zm58.5 15.8l17.3-45h6.4l18.4 45h-6.8l-5.2-13.6h-18.8l-4.9 13.6zm12.9-18.5h15.3l-4.7-12.4q-2.2-5.7-3.2-9.4-0.9 4.4-2.4 8.6zm90.8 18.5v-39.7h-14.8v-5.3h35.6v5.3h-14.9v39.7zm78.2-45h5.9v45h-5.9zm64.8 23q0-11.2 6-17.5 6-6.3 15.5-6.3 6.3 0 11.3 3 4.9 2.9 7.6 8.2 2.6 5.4 2.6 12.1 0 6.8-2.8 12.2-2.7 5.4-7.8 8.2-5 2.8-10.9 2.8-6.3 0-11.3-3.1-5-3.1-7.6-8.4-2.6-5.2-2.6-11.2zm6.1 0.1q0 8.1 4.4 12.8 4.4 4.7 11 4.7 6.7 0 11-4.7 4.4-4.7 4.4-13.4 0-5.5-1.9-9.6-1.9-4.1-5.4-6.4-3.6-2.2-8-2.2-6.4 0-10.9 4.3-4.6 4.4-4.6 14.5zm94.7 21.8v-44.9h6.1l23.6 35.3v-35.3h5.7v44.9h-6.1l-23.6-35.3v35.3z"></path>
  <path id="Path 5" className="s1" d="m999.4 152.9h2.5l-0.8-32.7 2.3-1.9c10.5 1.2 19.9 2.3 30.3 3.6l-2.6-9c-0.4-1.5 0.2-3.2 1.4-4.2l30.4-25.3-6.3-3c-2.8-1-2-2.6-1-6.4l4.6-17.3-17.6 3.8c-1.8 0.2-2.9-0.9-3.2-1.9l-2.3-8.2-13.9 16c-2 2.6-6 2.6-4.8-3.3l6-32.4-8 4.2c-2.3 1.3-4.5 1.5-5.8-0.8l-11.2-21.1-11.2 21.1c-1.3 2.3-3.5 2.1-5.8 0.8l-8-4.2 6 32.4c1.2 5.9-2.8 5.9-4.8 3.3l-13.9-16-2.3 8.2c-0.3 1-1.4 2.1-3.1 1.9l-17.7-3.8 4.7 17.3c1 3.8 1.7 5.4-1 6.4l-6.3 3 30.4 25.3c1.2 0.9 1.8 2.7 1.4 4.2l-2.7 9c10.4-1.3 19.8-2.4 30.3-3.6l2.3 1.9-0.8 32.7z"></path>
</svg>

